<?xml version="1.0" encoding="utf-8"?>
<!-- Generator: Adobe Illustrator 23.0.3, SVG Export Plug-In . SVG Version: 6.00 Build 0)  -->
<svg version="1.1" id="Layer_1" focusable="false" xmlns="http://www.w3.org/2000/svg" xmlns:xlink="http://www.w3.org/1999/xlink"
	 x="0px" y="0px" viewBox="0 0 512 512" style="enable-background:new 0 0 512 512;" xml:space="preserve">
<style type="text/css">
	.st0{fill:#FFFFFF;}
</style>
<path class="st0" d="M216,0h80c13.3,0,24,10.7,24,24v168h87.7c17.8,0,26.7,21.5,14.1,34.1L269.7,378.3c-7.5,7.5-19.8,7.5-27.3,0
	L90.1,226.1c-12.6-12.6-3.7-34.1,14.1-34.1H192V24C192,10.7,202.7,0,216,0z M512,376v112c0,13.3-10.7,24-24,24H24
	c-13.3,0-24-10.7-24-24V376c0-13.3,10.7-24,24-24h146.7l49,49c20.1,20.1,52.5,20.1,72.6,0l49-49H488C501.3,352,512,362.7,512,376z
	 M388,464c0-11-9-20-20-20s-20,9-20,20s9,20,20,20S388,475,388,464z M452,464c0-11-9-20-20-20s-20,9-20,20s9,20,20,20
	S452,475,452,464z"/>
</svg>
