<?xml version="1.0" encoding="utf-8"?>
<!-- Generator: Adobe Illustrator 23.0.3, SVG Export Plug-In . SVG Version: 6.00 Build 0)  -->
<svg version="1.1" id="Layer_1" focusable="false" xmlns="http://www.w3.org/2000/svg" xmlns:xlink="http://www.w3.org/1999/xlink"
	 x="0px" y="0px" viewBox="0 0 512 512" style="enable-background:new 0 0 512 512;" xml:space="preserve">
<style type="text/css">
	.st0{fill:#808080;}
</style>
<path class="st0" d="M497.9,142.1l-46.1,46.1c-4.7,4.7-12.3,4.7-17,0l-111-111c-4.7-4.7-4.7-12.3,0-17l46.1-46.1
	c18.7-18.7,49.1-18.7,67.9,0l60.1,60.1C516.7,92.9,516.7,123.3,497.9,142.1z M284.2,99.8L21.6,362.4L0.4,483.9
	c-2.9,16.4,11.4,30.6,27.8,27.8l121.5-21.3l262.6-262.6c4.7-4.7,4.7-12.3,0-17l-111-111C296.5,95.1,288.9,95.1,284.2,99.8
	L284.2,99.8z M124.1,339.9c-5.5-5.5-5.5-14.3,0-19.8l154-154c5.5-5.5,14.3-5.5,19.8,0s5.5,14.3,0,19.8l-154,154
	C138.4,345.4,129.6,345.4,124.1,339.9L124.1,339.9z M88,424h48v36.3l-64.5,11.3l-31.1-31.1L51.7,376H88V424z"/>
</svg>
